<svg width="178" height="178" viewBox="0 0 178 178" fill="none" xmlns="http://www.w3.org/2000/svg">
<g filter="url(#filter0_d_1_369)">
<path d="M165.313 100.301H161.778V103.836H165.313V100.301Z" fill="black"/>
<path d="M154.155 83.6747H150.62V87.2097H154.155V83.6747Z" fill="black"/>
<path d="M152.388 122.947H148.853V126.482H152.388V122.947Z" fill="black"/>
<path d="M30.657 100.301H27.1221V103.836H30.657V100.301Z" fill="black"/>
<path d="M19.4988 83.6747H15.9639V87.2097H19.4988V83.6747Z" fill="black"/>
<path d="M17.7313 122.947H14.1963V126.482H17.7313V122.947Z" fill="black"/>
<path d="M73.9807 76.3335C72.9103 76.3335 72.0391 75.4626 72.0391 74.3918H68.5625C68.5625 77.3796 70.993 79.8101 73.9807 79.8101C76.9685 79.8101 79.3989 77.3796 79.3989 74.3918H75.9224C75.9224 75.4626 75.0512 76.3335 73.9807 76.3335Z" fill="black"/>
<path d="M94.0144 76.3335C92.944 76.3335 92.0728 75.4626 92.0728 74.3918H88.5962C88.5962 77.3796 91.0267 79.8101 94.0144 79.8101C97.0022 79.8101 99.4326 77.3796 99.4326 74.3918H95.9561C95.9561 75.4626 95.0848 76.3335 94.0144 76.3335Z" fill="black"/>
<path d="M170.058 71.9381H144.598V36.724C144.598 22.3467 132.901 10.6498 118.523 10.6498H59.346C44.9687 10.6498 33.2718 22.3467 33.2718 36.724V71.9381H7.94189V75.4147H33.2718V138.56C31.8422 138.081 30.8629 137.085 29.7146 135.911C27.9718 134.129 25.8031 131.912 21.6719 131.912C17.5403 131.912 15.3717 134.129 13.6289 135.911C12.015 137.561 10.7405 138.865 8.07227 138.865V142.341C12.2035 142.341 14.3721 140.124 16.1146 138.342C17.7288 136.691 19.0036 135.388 21.6719 135.388C24.3401 135.388 25.615 136.691 27.2285 138.342C28.6653 139.811 30.3946 141.573 33.2718 142.147V167.35H36.7483V149.509H49.5835V167.35H53.06V124.135C53.06 116.318 58.384 109.652 66.0078 107.924L78.8895 105.004V99.4541C80.5336 99.8295 82.2426 100.035 83.999 100.035C85.82 100.035 87.5896 99.8153 89.2893 99.412V105.015L109.363 109.397L126.606 85.4856C127.674 84.0049 127.594 81.9996 126.411 80.6097L113.527 65.4651V56.7827C113.527 56.3141 113.514 55.8475 113.492 55.3824L133.429 76.9541C136.204 79.9568 136.666 84.4986 134.552 87.9988L110.653 127.567V123.764H92.9178C89.2212 123.764 85.966 125.682 84.089 128.573C82.212 125.682 78.9566 123.764 75.26 123.764H57.5246V130.465C57.5246 132.996 58.1862 135.374 59.3418 137.44V167.35H62.8184V141.582C65.2881 143.596 68.4383 144.806 71.8661 144.806H75.26C78.9569 144.806 82.212 142.888 84.089 139.996C85.9657 142.888 89.2212 144.806 92.9178 144.806H96.312C99.7822 144.806 102.969 143.566 105.452 141.508V167.35H108.928V149.509H130.061V146.032H108.928V137.278C109.064 137.028 109.189 136.773 109.31 136.515L118.082 121.992H141.121V146.032H135.254V149.509H141.121V167.35H144.597V135.61C146.173 136.05 147.198 137.097 148.416 138.341C150.158 140.124 152.327 142.341 156.459 142.341C160.59 142.341 162.758 140.124 164.501 138.342C166.115 136.691 167.39 135.388 170.058 135.388V131.912C165.927 131.912 163.758 134.129 162.015 135.911C160.401 137.561 159.127 138.865 156.459 138.865C153.79 138.865 152.515 137.561 150.901 135.911C149.422 134.398 147.631 132.576 144.597 132.059V75.4147H170.058V71.9381H170.058ZM75.2603 141.33H71.8665C65.8757 141.33 61.0015 136.456 61.0015 130.465V127.241H75.2603C79.145 127.241 82.3052 130.401 82.3052 134.286C82.3052 138.17 79.145 141.33 75.2603 141.33ZM107.177 130.465C107.177 136.456 102.303 141.33 96.3123 141.33H92.9181C89.0338 141.33 85.8736 138.17 85.8736 134.285C85.8736 130.401 89.0338 127.24 92.9181 127.24H107.177V130.465ZM49.5835 124.135V146.033H36.7483V121.993H49.6992C49.6255 122.698 49.5835 123.411 49.5835 124.135ZM50.374 118.516H36.7487V94.193H49.3603C46.8582 97.3695 45.4724 101.299 45.4724 105.457C45.4724 110.146 47.2994 114.668 50.5145 118.042C50.4651 118.199 50.4196 118.357 50.374 118.516ZM65.7255 104.422C64.9394 101.795 64.5369 99.0807 64.5369 96.3293V89.2173C65.5054 90.7668 66.653 92.1936 67.9519 93.4667V96.248C67.9519 98.7699 68.2571 101.273 68.8495 103.715L65.7255 104.422ZM75.4129 102.227L72.2402 102.946C71.7062 100.764 71.4309 98.5251 71.4288 96.2702C72.6779 97.0917 74.0112 97.7933 75.4129 98.3617V102.227ZM96.7142 96.248C96.7142 98.4969 96.4423 100.728 95.9132 102.903L92.7655 102.216V98.2904C94.1554 97.7133 95.4772 97.0045 96.7138 96.1774V96.248H96.7142ZM103.462 97.259C103.462 99.2566 103.295 101.269 102.965 103.24C102.9 103.631 102.824 104.013 102.748 104.395L99.3105 103.644C99.8918 101.226 100.191 98.7466 100.191 96.248V93.329C101.432 92.091 102.528 90.7101 103.461 89.217V97.259H103.462ZM103.462 77.0956C103.462 87.8274 94.7311 96.5581 83.9994 96.5581C73.2721 96.5581 64.5445 87.8347 64.5372 77.1091V73.3301C64.5372 68.6628 66.4903 64.2667 69.9179 61.1462C70.5416 61.273 71.1865 61.3398 71.8474 61.3398H72.8806C77.4592 61.3398 81.3026 58.1414 82.3 53.8621H85.7185C86.7159 58.1414 90.5589 61.3398 95.1379 61.3398H96.1712C97.1036 61.3398 98.0036 61.2046 98.8575 60.9574C101.834 64.1763 103.463 68.3232 103.463 72.7464V77.0956H103.462ZM65.6494 51.6659V48.7772C65.6494 48.2724 66.0599 47.8619 66.5647 47.8619H78.1618C78.6666 47.8619 79.0772 48.2724 79.0772 48.7772V51.6659C79.0772 55.0834 76.297 57.8632 72.8799 57.8632H71.8467C68.4296 57.8632 65.6494 55.0834 65.6494 51.6659ZM88.9395 51.6659V48.7772C88.9395 48.2724 89.3501 47.8619 89.8549 47.8619H101.452C101.957 47.8619 102.367 48.2724 102.367 48.7772V51.6659C102.367 55.0834 99.5872 57.8632 96.1701 57.8632H95.1369C91.7198 57.8632 88.9395 55.0834 88.9395 51.6659ZM113.528 70.8312L123.763 82.8629C123.906 83.0308 123.915 83.2731 123.786 83.4521L117.207 92.5753C116.711 92.0768 116.186 91.6036 115.634 91.1635C114.295 90.1 113.527 88.5203 113.527 86.8289V70.8312H113.528ZM115.138 95.4459L107.877 105.515L106.148 105.138C106.236 104.702 106.319 104.261 106.394 103.815C106.755 101.654 106.938 99.4478 106.938 97.259V72.7467C106.938 67.769 105.219 63.0823 102.06 59.3331C104.358 57.5629 105.844 54.7854 105.844 51.6663V48.7776C105.844 46.3558 103.874 44.3856 101.452 44.3856H89.8549C87.4332 44.3856 85.463 46.3558 85.463 48.7776V50.3858H82.5538V49.265L82.6 49.2946C84.6512 46.086 85.7359 42.3713 85.7359 38.552V36.0252H82.2593V38.552C82.2593 40.8914 81.766 43.1824 80.8207 45.2902C80.082 44.7253 79.1621 44.3856 78.1622 44.3856H66.5651C64.1433 44.3856 62.1731 46.3558 62.1731 48.7776V51.6663C62.1731 55.0034 63.8718 57.9508 66.4493 59.6905C63.002 63.3673 61.0606 68.2137 61.0606 73.3305V77.0959H61.0603C61.0603 77.1004 61.0606 77.1046 61.0606 77.1095V96.3297C61.0606 99.4144 61.5116 102.458 62.3908 105.404C57.889 107.141 54.2587 110.384 52.0292 114.477C50.0528 111.912 48.9493 108.736 48.9493 105.458C48.9493 100.873 51.0238 96.6255 54.6408 93.8043C56.855 92.0761 58.125 89.4843 58.125 86.6923V56.4556C58.125 49.5212 60.8256 43.0016 65.7283 38.0983C70.5805 33.2495 77.0278 30.55 83.8832 30.4971C83.9521 30.4964 84.0202 30.4964 84.0894 30.4964C90.8683 30.4964 97.2937 33.1703 102.202 38.0388C107.264 43.0604 110.051 49.7173 110.051 56.7834V86.8303C110.051 89.5883 111.298 92.1609 113.471 93.8856C114.068 94.3616 114.623 94.8865 115.138 95.4459ZM141.121 118.516H120.182L134.873 94.193H141.121V118.516H141.121ZM141.121 90.7168H136.972L137.528 89.7969C140.438 84.979 139.802 78.7278 135.982 74.5949L128.403 66.3937H141.121V90.7168ZM141.121 62.9168H125.615V63.3767L112.563 49.2546C111.228 44.1291 108.533 39.4222 104.649 35.5698C99.0852 30.05 91.7928 27.0188 84.0897 27.0188C84.0119 27.0188 83.9333 27.0192 83.8554 27.0195C76.0825 27.0793 68.772 30.1401 63.2696 35.6386C57.7099 41.199 54.6478 48.5916 54.6478 56.4545V86.6912C54.6478 88.2296 54.013 89.6675 52.897 90.7164H36.748V66.3933H51.3214V62.9168H36.748V38.594H56.1531V35.1175H36.8113C37.639 23.4049 47.4259 14.1267 59.3453 14.1267H118.523C130.442 14.1267 140.229 23.4049 141.057 35.1175H111.199V38.594H141.12V62.9168H141.121Z" fill="black"/>
<path d="M126.653 19.8488H47.2109V23.3253H126.653V19.8488Z" fill="black"/>
</g>
<defs>
<filter id="filter0_d_1_369" x="-4" y="0" width="186" height="186" filterUnits="userSpaceOnUse" color-interpolation-filters="sRGB">
<feFlood flood-opacity="0" result="BackgroundImageFix"/>
<feColorMatrix in="SourceAlpha" type="matrix" values="0 0 0 0 0 0 0 0 0 0 0 0 0 0 0 0 0 0 127 0" result="hardAlpha"/>
<feOffset dy="4"/>
<feGaussianBlur stdDeviation="2"/>
<feComposite in2="hardAlpha" operator="out"/>
<feColorMatrix type="matrix" values="0 0 0 0 0 0 0 0 0 0 0 0 0 0 0 0 0 0 0.25 0"/>
<feBlend mode="normal" in2="BackgroundImageFix" result="effect1_dropShadow_1_369"/>
<feBlend mode="normal" in="SourceGraphic" in2="effect1_dropShadow_1_369" result="shape"/>
</filter>
</defs>
</svg>
